<?xml version="1.0" standalone="no"?>
<!DOCTYPE svg PUBLIC "-//W3C//DTD SVG 20010904//EN"
 "http://www.w3.org/TR/2001/REC-SVG-20010904/DTD/svg10.dtd">
<svg version="1.0" xmlns="http://www.w3.org/2000/svg"
 viewBox="30 500 3534.000000 988.000000"
 preserveAspectRatio="xMidYMid meet">

<g transform="translate(0.000000,2008.000000) scale(0.100000,-0.100000)">
<path d="M0 10040 l0 -10040 17920 0 17920 0 0 10040 0 10040 -17920 0 -17920
0 0 -10040z m22683 3916 c18 -7 42 -24 53 -37 12 -13 88 -152 169 -309 81
-157 260 -501 398 -765 2306 -4432 3248 -6251 3252 -6283 9 -56 -28 -121 -85
-149 l-44 -23 -836 0 c-797 0 -837 1 -877 19 -52 24 -46 13 -295 524 l-203
417 -1634 -2 -1635 -3 -213 -445 c-118 -244 -221 -452 -230 -462 -8 -9 -34
-24 -57 -33 -36 -14 -134 -15 -843 -13 -792 3 -802 3 -829 24 -51 37 -69 71
-69 127 0 49 39 127 737 1472 405 781 781 1506 836 1610 54 105 147 285 206
400 140 271 233 451 366 705 59 113 153 295 210 405 57 110 161 313 233 450
71 138 164 318 207 400 43 83 135 260 205 395 70 135 195 376 278 535 167 325
383 739 463 890 29 55 63 110 76 122 45 43 104 53 161 29z m7457 4 c965 -72
1788 -456 2465 -1151 298 -305 520 -613 693 -959 279 -556 395 -1065 395
-1730 0 -354 -27 -607 -99 -920 -205 -888 -769 -1700 -1577 -2270 -541 -381
-1166 -600 -1857 -651 -196 -15 -631 -6 -800 16 -374 48 -717 139 -1029 272
-683 291 -1340 856 -1757 1513 -266 418 -449 898 -523 1370 -42 271 -46 330
-46 675 1 362 9 473 60 750 152 826 592 1578 1270 2169 253 221 562 425 855
564 427 203 909 326 1395 355 125 8 433 6 555 -3z m-25880 -374 l515 -233 930
-1484 930 -1484 8 1480 c4 813 10 1482 15 1485 4 4 230 111 503 238 295 138
507 232 525 232 34 0 1033 -460 1044 -481 4 -8 10 -1453 13 -3212 l6 -3198
-27 -29 c-19 -21 -168 -92 -521 -249 -272 -122 -503 -221 -512 -221 -10 0 -22
6 -26 13 -4 7 -217 111 -472 232 l-465 220 -975 1309 -976 1309 -3 -1294 -2
-1294 -23 -26 c-15 -18 -174 -94 -518 -248 -273 -121 -500 -221 -504 -221 -4
0 -233 99 -509 221 -363 159 -508 228 -528 249 l-26 29 5 2703 c3 1487 8 2932
12 3212 l6 508 495 233 c346 163 506 233 530 234 25 0 188 -69 550 -233z
m9650 -566 l0 -670 -1155 0 -1155 0 0 -670 0 -670 1340 0 1340 0 0 -665 0
-665 -1340 0 -1340 0 0 -1565 0 -1565 -740 0 -740 0 0 3570 0 3570 1895 0
1895 0 0 -670z m5970 0 l0 -670 -940 0 -940 0 0 -2900 0 -2900 -740 0 -740 0
0 2900 0 2900 -880 0 -880 0 0 670 0 670 2560 0 2560 0 0 -670z"/>
<path d="M22547 13328 c-41 -78 -171 -330 -290 -558 -118 -228 -273 -527 -345
-665 -71 -137 -229 -441 -349 -675 -121 -234 -290 -560 -376 -725 -1465 -2825
-2067 -3989 -2067 -3996 0 -5 259 -8 587 -7 l586 3 213 444 c118 244 222 453
231 464 46 50 -53 47 1843 47 1906 0 1797 3 1845 -50 11 -12 117 -221 236
-463 l216 -442 632 -3 c560 -2 633 0 627 13 -4 11 -1976 3809 -2986 5750 -37
72 -168 324 -290 560 -122 237 -226 434 -230 438 -4 5 -42 -56 -83 -135z m70
-2109 c15 -5 40 -22 54 -35 16 -15 251 -481 584 -1160 616 -1253 586 -1181
531 -1264 -49 -75 25 -71 -1228 -68 -1115 3 -1117 3 -1145 24 -15 11 -38 36
-50 54 -49 72 -72 19 523 1252 301 623 558 1145 572 1161 39 42 105 57 159 36z"/>
<path d="M22157 9866 c-224 -464 -407 -848 -407 -855 0 -8 217 -11 825 -11
607 0 825 3 825 11 0 13 -817 1679 -829 1691 -4 4 -190 -372 -414 -836z"/>
<path d="M29650 13654 c-314 -21 -549 -60 -818 -134 -485 -132 -966 -409
-1380 -793 -417 -386 -723 -827 -907 -1302 -108 -279 -173 -547 -217 -885 -18
-142 -18 -687 0 -835 36 -289 110 -602 199 -840 61 -162 205 -455 293 -595
339 -537 879 -1038 1415 -1312 395 -201 762 -309 1230 -360 157 -17 635 -17
780 0 808 96 1405 370 2002 919 112 103 319 327 413 446 355 451 600 1018 684
1582 65 440 54 912 -30 1325 -126 615 -401 1146 -843 1627 -557 607 -1238 985
-1995 1109 -229 37 -636 61 -826 48z m575 -1133 c317 -55 614 -171 854 -333
272 -183 532 -446 710 -718 175 -266 312 -630 356 -946 83 -587 -16 -1163
-279 -1633 -282 -502 -764 -908 -1278 -1079 -266 -88 -472 -117 -797 -109
-238 5 -352 19 -526 63 -508 128 -977 455 -1301 909 -220 309 -366 685 -420
1085 -21 154 -24 525 -6 685 90 769 547 1459 1217 1833 246 138 537 229 830
261 141 15 510 5 640 -18z"/>
<path d="M29630 12229 c-342 -31 -686 -167 -975 -387 -97 -75 -288 -267 -373
-376 -269 -346 -401 -691 -443 -1161 -20 -228 6 -539 65 -775 172 -677 724
-1258 1371 -1443 204 -59 310 -72 575 -72 287 0 403 17 630 91 307 100 542
253 795 515 394 407 585 900 585 1505 0 429 -94 780 -302 1124 -79 132 -136
206 -266 347 -438 477 -1002 691 -1662 632z"/>
<path d="M3287 13515 c-235 -105 -429 -193 -431 -196 -9 -9 865 -391 882 -385
64 24 819 382 814 387 -4 3 -153 73 -332 154 -179 81 -366 167 -416 190 l-90
42 -427 -192z"/>
<path d="M7265 13517 c-231 -103 -423 -192 -428 -196 -7 -7 839 -391 861 -391
5 0 193 81 418 181 225 100 415 183 422 186 11 5 -259 134 -783 377 l-70 32
-420 -189z"/>
<path d="M4250 13034 c-250 -113 -456 -207 -458 -209 -2 -2 636 -1024 1419
-2272 782 -1247 1665 -2655 1962 -3128 296 -473 542 -863 546 -868 4 -4 212
87 462 202 l454 208 3 3132 c2 2981 1 3131 -15 3123 -10 -5 -210 -96 -445
-203 l-428 -194 0 -2115 -1 -2115 -24 -30 -24 -29 -27 20 c-16 11 -662 1030
-1491 2349 -804 1282 -1466 2331 -1470 2332 -5 2 -213 -90 -463 -203z"/>
<path d="M2772 10099 l3 -3131 425 -194 c234 -107 433 -197 443 -200 16 -5 17
105 17 2216 0 2081 1 2224 17 2251 20 34 64 40 88 11 9 -9 691 -928 1518
-2042 l1502 -2025 175 -87 c96 -48 268 -131 381 -186 l206 -100 -598 957
c-330 526 -1208 1928 -1951 3115 l-1353 2159 -415 184 c-228 100 -425 187
-438 193 l-22 10 2 -3131z"/>
<path d="M6750 11716 l0 -1511 439 -699 c242 -384 442 -701 445 -704 4 -3 6
901 6 2009 l-1 2014 -444 201 -445 202 0 -1512z"/>
<path d="M3770 8713 l0 -2151 445 202 444 201 1 1351 0 1351 -436 589 c-240
324 -440 593 -445 599 -5 5 -9 -905 -9 -2142z"/>
</g>
</svg>
