<svg xmlns="http://www.w3.org/2000/svg" viewBox="0 0 499 500" version="1.1"><path d="M 117 28.336 C 88.145 41.478, 65.360 52.456, 64.341 53.709 C 62.973 55.391, 62.722 445.417, 64.088 448.091 C 64.535 448.966, 67.735 450.930, 71.200 452.455 C 74.665 453.980, 81.550 457.034, 86.500 459.241 C 106.936 468.353, 127.372 477, 128.469 477 C 129.737 477, 137.311 473.791, 166 461.101 C 188.957 450.946, 190.862 449.974, 192.599 447.527 C 193.771 445.877, 194 432.973, 194 368.572 L 194 291.590 205.250 306.619 C 211.438 314.886, 217.669 323.190, 219.098 325.074 C 220.527 326.958, 226.187 334.575, 231.676 342 C 245.013 360.040, 276.725 402.679, 295.679 428.056 L 311.031 448.612 324.766 455.271 C 332.320 458.933, 344.750 464.843, 352.389 468.404 C 360.029 471.965, 366.756 475.356, 367.339 475.939 C 367.923 476.523, 369.331 477, 370.469 477 C 373.458 477, 433.262 450.296, 434.750 448.297 C 436.585 445.832, 436.585 56.116, 434.750 53.814 C 433.466 52.203, 376.571 25.673, 371.899 24.507 C 369.293 23.857, 368.767 24.079, 329.500 42.448 C 324 45.021, 316.575 48.560, 313 50.313 L 306.500 53.500 306 141.167 C 305.725 189.384, 305.241 229.093, 304.925 229.409 C 304.470 229.863, 277.014 186.857, 260.500 159.824 C 256.048 152.536, 221.797 97.822, 220.233 95.500 C 219.492 94.400, 213.131 84.317, 206.097 73.094 L 193.308 52.687 184.404 48.737 C 179.507 46.565, 166.275 40.613, 155 35.512 C 136.528 27.155, 128.857 23.991, 127.101 24.005 C 126.770 24.008, 122.225 25.957, 117 28.336 M 125.450 25.819 C 124.927 26.269, 120.225 28.588, 115 30.971 C 109.775 33.355, 99.200 38.322, 91.500 42.009 C 83.800 45.696, 74.736 49.942, 71.358 51.444 L 65.216 54.176 65.029 212.838 C 64.926 300.102, 64.740 375.438, 64.615 380.250 C 64.491 385.062, 64.778 389, 65.254 389 C 65.729 389, 65.863 389.413, 65.551 389.917 C 64.518 391.589, 64.235 416, 65.249 416 C 65.785 416, 65.883 416.778, 65.469 417.750 C 64.097 420.974, 63.957 430.353, 65.268 431.202 C 66.236 431.829, 66.223 432.179, 65.208 432.835 C 64.234 433.464, 64.146 434.695, 64.850 437.827 C 65.384 440.204, 65.402 441.748, 64.892 441.433 C 64.401 441.130, 64 442.034, 64 443.441 C 64 444.848, 64.450 446, 65 446 C 65.550 446, 66 446.640, 66 447.422 C 66 448.205, 67.688 449.392, 69.750 450.060 C 71.813 450.728, 76.033 452.542, 79.130 454.091 C 82.226 455.640, 85.038 456.628, 85.380 456.287 C 85.721 455.946, 86 456.192, 86 456.833 C 86 457.475, 86.615 458, 87.366 458 C 88.117 458, 93.007 460.025, 98.232 462.500 C 103.457 464.975, 108.430 467, 109.285 467 C 111.057 467, 117.331 470.119, 117.833 471.250 C 118.017 471.662, 118.820 472, 119.619 472 C 120.417 472, 122.098 472.673, 123.354 473.496 C 127.115 475.960, 130.068 475.523, 139.150 471.158 C 143.907 468.871, 148.131 467, 148.537 467 C 148.942 467, 152.925 465.272, 157.387 463.159 C 161.849 461.047, 170.900 456.935, 177.500 454.022 C 184.100 451.108, 190.087 448.262, 190.804 447.696 C 191.856 446.865, 192.086 432.382, 191.996 372.583 C 191.864 283.632, 191.811 289, 192.811 289 C 193.962 289, 197.078 292.242, 200 296.478 C 202.431 300.003, 209.341 309.463, 212.433 313.500 C 213.276 314.600, 216.277 318.538, 219.102 322.250 C 221.928 325.963, 224.662 329, 225.179 329 C 225.695 329, 225.882 329.382, 225.594 329.849 C 225.305 330.315, 225.954 331.646, 227.035 332.807 C 228.116 333.967, 229 335.330, 229 335.836 C 229 336.341, 229.659 337.302, 230.464 337.971 C 231.270 338.639, 233.487 341.507, 235.391 344.343 C 237.294 347.179, 240.235 350.990, 241.926 352.812 C 243.617 354.633, 245.013 356.433, 245.028 356.812 C 245.081 358.132, 250.711 364.957, 251.353 364.481 C 251.709 364.216, 251.793 364.282, 251.539 364.627 C 251.061 365.279, 256.707 374, 257.607 374 C 257.888 374, 257.797 373.480, 257.405 372.845 C 256.949 372.108, 257.132 371.963, 257.912 372.446 C 258.584 372.861, 258.892 373.441, 258.598 373.736 C 258.072 374.262, 264.471 383.917, 267.801 387.623 C 268.735 388.662, 271.520 392.435, 273.988 396.006 C 276.457 399.578, 280.880 405.650, 283.817 409.500 C 289.456 416.890, 294.149 423.174, 302.305 434.250 C 305.038 437.962, 307.663 441, 308.137 441 C 308.612 441, 309 441.675, 309 442.500 C 309 443.325, 309.343 444, 309.763 444 C 310.182 444, 310.970 445.012, 311.513 446.250 C 312.149 447.699, 314.457 449.214, 318 450.508 C 323.041 452.348, 342.182 461.344, 362.758 471.543 C 370.554 475.408, 371.220 475.567, 374.658 474.385 C 376.661 473.696, 378.676 472.540, 379.135 471.816 C 379.594 471.092, 379.976 470.803, 379.985 471.173 C 380.004 472.025, 395.350 465.445, 404.237 460.774 C 407.942 458.827, 410.730 457.628, 410.432 458.110 C 410.134 458.592, 414.045 456.965, 419.122 454.494 C 424.200 452.022, 429.123 450, 430.062 450 C 431.002 450, 432.563 448.790, 433.532 447.310 C 435.162 444.823, 435.246 442.058, 434.644 410.560 C 434.286 391.827, 433.951 304.182, 433.900 215.792 C 433.830 95.688, 433.515 54.858, 432.653 54.189 C 431.657 53.414, 425.884 50.671, 397.500 37.485 C 394.750 36.208, 387.550 32.838, 381.500 29.996 L 370.500 24.830 363.500 28.341 C 359.650 30.272, 354.475 32.630, 352 33.581 C 349.525 34.532, 346.825 35.860, 346 36.532 C 345.175 37.204, 342.836 38.341, 340.803 39.059 C 338.770 39.776, 337.377 40.801, 337.708 41.336 C 338.039 41.873, 337.793 41.990, 337.160 41.599 C 336.160 40.981, 326.394 45.180, 312.293 52.290 L 308.086 54.411 307.793 71.956 C 307.632 81.605, 307.886 89.781, 308.357 90.125 C 308.828 90.469, 308.677 91.082, 308.021 91.487 C 307.141 92.031, 306.884 98.551, 307.042 116.362 C 307.160 129.638, 307.198 162.094, 307.128 188.487 L 307 236.473 303.274 230.987 C 297.762 222.870, 290.410 211.118, 287.642 206 C 286.304 203.525, 284.084 200.290, 282.709 198.812 C 281.335 197.333, 280.463 195.871, 280.772 195.562 C 281.081 195.253, 280.733 195, 280 195 C 279.267 195, 278.946 194.721, 279.287 194.380 C 279.628 194.038, 278.277 191.226, 276.284 188.130 C 274.292 185.033, 272.156 181.600, 271.539 180.500 C 268.686 175.415, 264.235 169.098, 263.807 169.526 C 263.547 169.787, 263.333 169.403, 263.333 168.674 C 263.333 167.114, 250.663 146.531, 247.670 143.228 C 246.538 141.979, 245.508 140.253, 245.381 139.392 C 245.255 138.530, 244.046 136.178, 242.695 134.163 C 238.383 127.735, 229.340 113.536, 228.898 112.500 C 227.691 109.670, 221.579 101, 220.792 101 C 220.291 101, 220.130 100.598, 220.434 100.106 C 220.738 99.615, 219.067 96.352, 216.720 92.856 C 214.374 89.360, 211.859 85.324, 211.131 83.886 C 210.403 82.448, 208.716 80.095, 207.382 78.656 C 206.048 77.218, 205.033 75.919, 205.126 75.770 C 205.459 75.240, 201.011 67.125, 200.068 66.542 C 199.539 66.215, 197.650 63.298, 195.869 60.059 C 193.108 55.036, 191.886 53.846, 187.566 51.976 C 184.780 50.769, 179.389 48.369, 175.587 46.641 C 171.785 44.913, 168.297 43.613, 167.837 43.750 C 167.377 43.888, 167 43.550, 167 43 C 167 42.450, 166.488 42, 165.861 42 C 165.235 42, 160.969 40.200, 156.381 38 C 151.794 35.800, 147.828 34, 147.569 34 C 147.310 34, 142.851 31.975, 137.660 29.500 C 127.681 24.742, 126.954 24.523, 125.450 25.819 M 121 34.382 C 117.975 35.646, 113.643 37.633, 111.374 38.797 C 109.104 39.962, 106.967 40.634, 106.624 40.290 C 106.281 39.947, 106 40.143, 106 40.725 C 106 41.307, 104.980 42.039, 103.734 42.352 C 99.513 43.411, 76 55.006, 76 56.028 C 76 56.586, 77.237 57.557, 78.750 58.185 C 80.263 58.813, 85.257 61.054, 89.848 63.164 C 94.440 65.274, 98.553 67, 98.988 67 C 99.424 67, 102.867 68.520, 106.640 70.378 C 110.413 72.236, 117.061 75.234, 121.414 77.040 L 129.327 80.323 133.414 78.301 C 144.427 72.852, 151.572 69.630, 152.250 69.806 C 152.662 69.913, 153 69.550, 153 69 C 153 68.450, 153.591 68, 154.313 68 C 156.685 68, 179 57.023, 179 55.856 C 179 55.021, 158.342 44.862, 153.737 43.432 C 152.507 43.050, 150.272 41.873, 148.771 40.815 C 147.269 39.758, 145.123 38.716, 144 38.500 C 142.877 38.284, 140.618 37.152, 138.979 35.985 C 137.341 34.819, 136 34.125, 136 34.445 C 136 34.765, 134.370 34.346, 132.378 33.513 C 127.805 31.603, 127.619 31.617, 121 34.382 M 365 33.769 C 363.075 34.672, 357.675 37.159, 353 39.296 C 348.325 41.433, 340.744 44.941, 336.154 47.091 C 331.564 49.241, 327.332 50.705, 326.750 50.345 C 326.128 49.961, 325.985 50.167, 326.405 50.845 C 326.831 51.535, 326.471 52, 325.509 52 C 323.527 52, 317.996 54.784, 318.010 55.776 C 318.019 56.514, 333.657 64.167, 337.750 65.437 C 338.988 65.821, 340 66.581, 340 67.126 C 340 67.672, 340.398 67.872, 340.886 67.571 C 341.732 67.047, 358.963 74.514, 360 75.854 C 360.275 76.209, 360.950 76.503, 361.500 76.507 C 362.050 76.510, 364.595 77.343, 367.156 78.357 L 371.812 80.200 376.656 77.767 C 379.320 76.429, 381.725 75.288, 382 75.231 C 383.861 74.851, 387.246 73.409, 392 70.973 C 395.025 69.423, 400.200 67.146, 403.500 65.915 C 406.800 64.683, 411.387 62.623, 413.692 61.337 C 415.998 60.052, 418.531 59, 419.320 59 C 420.109 59, 421.304 58.339, 421.975 57.530 C 422.988 56.309, 422.586 55.770, 419.597 54.345 C 417.619 53.402, 416 52.236, 416 51.756 C 416 51.275, 415.569 51.149, 415.041 51.474 C 413.986 52.127, 399.702 45.286, 399.165 43.871 C 398.980 43.385, 398.455 43.219, 397.998 43.501 C 396.799 44.242, 378.972 35.376, 379.804 34.452 C 380.187 34.027, 379.985 33.974, 379.356 34.333 C 378.727 34.693, 376.604 34.315, 374.638 33.493 C 370.271 31.668, 369.428 31.693, 365 33.769 M 118 37.494 C 112.775 39.890, 105.575 43.177, 102 44.799 C 83.438 53.222, 79.003 55.367, 79.034 55.908 C 79.053 56.233, 82.541 58.053, 86.784 59.952 C 91.028 61.850, 96.750 64.411, 99.500 65.643 C 122.218 75.815, 127.348 78, 128.508 78 C 129.239 78, 134.037 76.051, 139.169 73.669 C 168.524 60.046, 176 56.441, 176 55.908 C 176 55.582, 172.287 53.619, 167.750 51.546 C 163.213 49.472, 157.250 46.725, 154.500 45.441 C 139.982 38.661, 127.693 33.008, 127.603 33.069 C 127.546 33.106, 123.225 35.098, 118 37.494 M 361.880 36.823 C 357.689 38.845, 346.790 43.875, 337.660 48 C 328.530 52.125, 321.048 55.725, 321.034 56 C 321.019 56.275, 323.143 57.364, 325.754 58.419 C 328.364 59.475, 335.225 62.464, 341 65.063 C 374.751 80.250, 369.698 79.424, 385.427 72.330 C 397.237 67.002, 400.901 65.369, 411 60.931 C 415.125 59.118, 418.849 57.345, 419.275 56.992 C 419.945 56.437, 371.345 32.835, 370 33.062 C 369.725 33.108, 366.071 34.801, 361.880 36.823 M 71.317 60.804 C 70.010 61.612, 69.662 123.728, 69.868 319.266 L 70 444.032 73.500 445.701 C 75.425 446.619, 77 447.764, 77 448.244 C 77 448.725, 77.398 448.872, 77.885 448.571 C 79.309 447.691, 85.068 450.081, 84.344 451.252 C 83.985 451.833, 84.149 452.026, 84.709 451.680 C 85.644 451.102, 93.841 454.449, 95 455.882 C 95.275 456.222, 96.400 456.656, 97.500 456.846 C 98.600 457.037, 103.325 459.036, 108 461.288 C 112.675 463.540, 117.086 465.486, 117.802 465.611 C 118.518 465.736, 120.130 466.511, 121.384 467.332 C 125.434 469.986, 125.898 468.441, 125.599 453.269 C 125.402 443.232, 125.639 439.271, 126.410 439.732 C 127.083 440.135, 127.053 439.831, 126.331 438.937 C 125.454 437.851, 125.239 416.264, 125.471 352.495 C 125.642 305.748, 125.782 265.250, 125.784 262.500 C 125.812 219.823, 125.860 196.265, 125.923 195.250 C 126.044 193.287, 130.811 193.778, 131.930 195.869 C 132.480 196.896, 132.608 198.093, 132.215 198.529 C 131.822 198.964, 132.004 199.033, 132.620 198.682 C 133.263 198.315, 135.468 200.485, 137.793 203.771 C 140.023 206.922, 142.574 210.400, 143.463 211.500 C 150.257 219.909, 155.910 228.337, 155.356 229.234 C 154.972 229.854, 155.158 230.020, 155.795 229.627 C 156.932 228.924, 159.296 232.239, 158.465 233.369 C 158.209 233.716, 158.278 233.797, 158.617 233.549 C 159.153 233.158, 165.435 240.835, 170 247.459 C 170.825 248.656, 172.963 251.470, 174.750 253.712 C 176.537 255.954, 178 258.537, 178 259.453 C 178 260.369, 178.412 260.864, 178.915 260.553 C 179.968 259.902, 184.652 266.997, 184.160 268.500 C 183.981 269.050, 184.158 269.176, 184.554 268.779 C 185.356 267.977, 193.643 279.019, 193.218 280.324 C 193.071 280.778, 193.412 280.864, 193.975 280.515 C 194.539 280.167, 195 280.546, 195 281.358 C 195 282.169, 195.400 282.983, 195.890 283.167 C 196.379 283.350, 200.439 288.450, 204.912 294.500 C 209.385 300.550, 214.279 307.075, 215.786 309 C 217.293 310.925, 219.869 314.525, 221.510 317 C 223.152 319.475, 224.835 321.753, 225.252 322.062 C 227.317 323.594, 230.857 329.433, 230.306 330.399 C 229.962 331.005, 230.052 331.162, 230.507 330.750 C 230.962 330.337, 233.762 333.262, 236.729 337.250 C 239.696 341.237, 243.438 346.244, 245.044 348.375 C 246.650 350.506, 247.720 352.644, 247.423 353.125 C 247.125 353.606, 247.471 354.011, 248.191 354.024 C 249.576 354.049, 260.657 368.969, 260.243 370.250 C 260.109 370.663, 260.389 371, 260.864 371 C 261.339 371, 263.027 372.913, 264.614 375.250 C 266.201 377.587, 268.287 380.088, 269.250 380.807 C 270.212 381.525, 271 382.626, 271 383.252 C 271 383.878, 272.058 385.540, 273.350 386.945 C 274.643 388.350, 279.382 394.636, 283.882 400.913 C 288.382 407.190, 293.178 413.715, 294.539 415.413 C 301.248 423.780, 302.918 426.323, 302.331 427.274 C 301.971 427.856, 302.174 428.010, 302.795 427.627 C 303.406 427.249, 304.443 427.960, 305.115 429.214 C 307.397 433.479, 316.333 443.971, 318.183 444.558 C 319.198 444.880, 319.728 445.631, 319.360 446.227 C 318.962 446.871, 319.157 447.021, 319.843 446.597 C 320.477 446.205, 322.234 446.539, 323.748 447.339 C 325.262 448.140, 330.194 450.584, 334.709 452.771 C 339.224 454.959, 342.613 457.054, 342.239 457.427 C 341.866 457.800, 342.409 457.780, 343.445 457.383 C 344.746 456.883, 345.107 457.018, 344.612 457.819 C 344.144 458.575, 344.434 458.771, 345.448 458.382 C 346.302 458.054, 347 458.284, 347 458.893 C 347 459.502, 347.337 459.911, 347.750 459.802 C 349.115 459.441, 353 461.118, 353 462.067 C 353 462.580, 353.337 462.893, 353.750 462.762 C 354.163 462.631, 355.977 463.142, 357.782 463.897 C 359.587 464.652, 361.320 465.013, 361.633 464.701 C 361.946 464.388, 359.224 459.490, 355.584 453.816 C 351.945 448.142, 348.187 441.925, 347.234 440 C 346.280 438.075, 344.823 435.746, 343.996 434.825 C 341.698 432.267, 333.689 418.660, 333.677 417.294 C 333.671 416.631, 333.309 416.309, 332.872 416.579 C 332.434 416.850, 331.108 415.142, 329.924 412.785 C 328.740 410.428, 326.790 407.150, 325.589 405.500 C 322.421 401.144, 313.883 387.162, 313.985 386.496 C 314.032 386.184, 313.376 385.233, 312.527 384.384 C 311.677 383.534, 311.283 382.313, 311.651 381.669 C 312.019 381.026, 311.975 380.811, 311.553 381.191 C 310.879 381.798, 304 372.719, 304 371.223 C 304 370.906, 302.501 368.363, 300.668 365.573 C 298.836 362.783, 294.674 356.347, 291.418 351.270 C 285.644 342.265, 284.180 339.939, 273.996 323.597 C 271.287 319.251, 269.307 315.313, 269.594 314.847 C 269.882 314.381, 269.702 314, 269.193 314 C 268.034 314, 260 302.138, 260 300.427 C 260 299.734, 259.626 299.017, 259.170 298.833 C 258.346 298.503, 250.800 286.806, 240.246 269.500 C 237.227 264.550, 233.309 258.250, 231.540 255.500 C 228.460 250.711, 220.829 238.596, 218.292 234.466 C 217.628 233.385, 214.530 228.450, 211.407 223.500 C 208.285 218.550, 205.716 213.957, 205.699 213.294 C 205.681 212.631, 205.343 212.288, 204.947 212.533 C 204.551 212.777, 203.944 212.195, 203.598 211.239 C 203.251 210.282, 202.399 208.600, 201.703 207.500 C 199.694 204.323, 192.995 193.957, 189.425 188.500 C 187.626 185.750, 186.007 182.827, 185.827 182.004 C 185.647 181.181, 184.825 179.957, 184 179.285 C 183.175 178.613, 182.816 178.049, 183.202 178.032 C 183.588 178.014, 182.898 176.914, 181.667 175.586 C 180.437 174.258, 178.772 171.896, 177.968 170.336 C 177.164 168.776, 174.705 164.701, 172.503 161.281 C 170.301 157.860, 166.363 151.743, 163.750 147.687 C 161.137 143.632, 159 140.038, 159 139.701 C 159 139.364, 157.210 136.534, 155.023 133.412 C 152.836 130.289, 151.287 127.344, 151.582 126.867 C 151.877 126.390, 151.737 126, 151.271 126 C 150.019 126, 142.859 115.038, 143.467 114.053 C 143.754 113.589, 143.288 112.941, 142.431 112.612 C 141.574 112.283, 141.153 111.561, 141.496 111.007 C 141.838 110.453, 141.688 110, 141.163 110 C 140.638 110, 138.877 107.862, 137.250 105.250 C 135.623 102.638, 132.089 96.957, 129.396 92.626 C 124.186 84.246, 123.741 83.933, 107 76.850 C 97.998 73.041, 93 70.511, 93 69.764 C 93 69.344, 92.285 69, 91.412 69 C 89.438 69, 73.707 62.144, 72.979 60.967 C 72.687 60.493, 71.939 60.420, 71.317 60.804 M 184 61.683 C 182.075 62.538, 179.825 63.638, 179 64.125 C 178.175 64.613, 176.825 65.291, 176 65.631 C 173.807 66.534, 133.156 85.105, 132.160 85.658 C 131.630 85.952, 140.246 100.258, 142.302 102.500 C 143.312 103.600, 144.388 105.737, 144.694 107.250 C 145 108.763, 145.568 110, 145.957 110 C 146.563 110, 148.156 112.353, 153.502 121.140 C 154.051 122.042, 156.216 125.417, 158.313 128.640 C 162.672 135.339, 167.200 142.513, 173.273 152.342 C 177.763 159.611, 184.165 169.652, 190.587 179.500 C 192.739 182.800, 194.847 186.353, 195.272 187.395 C 195.696 188.438, 197.537 191.363, 199.363 193.895 C 202.481 198.220, 204.021 201.199, 203.887 202.649 C 203.855 202.994, 204.227 203.552, 204.713 203.888 C 206.617 205.207, 209.901 210.770, 209.220 211.523 C 208.824 211.962, 208.990 212.042, 209.589 211.701 C 210.197 211.355, 211.697 212.939, 212.987 215.291 C 214.258 217.606, 215.870 220.175, 216.570 221 C 217.270 221.825, 217.990 223.137, 218.171 223.917 C 218.352 224.696, 219.093 226.046, 219.819 226.917 C 220.544 227.787, 222.839 231.200, 224.918 234.500 C 226.997 237.800, 232.335 246.200, 236.780 253.166 C 246.414 268.264, 248.151 271.490, 247.210 272.534 C 246.820 272.966, 247.030 273.017, 247.678 272.646 C 248.351 272.260, 249.106 272.759, 249.439 273.809 C 249.760 274.820, 250.805 276.527, 251.761 277.601 C 252.718 278.675, 254.400 281.342, 255.500 283.527 C 256.600 285.712, 258.227 288.307, 259.115 289.293 C 260.003 290.279, 261.981 293.429, 263.510 296.293 C 265.040 299.157, 266.917 302.228, 267.681 303.118 C 268.942 304.585, 273.334 311.558, 277.056 318 C 277.850 319.375, 278.742 320.725, 279.039 321 C 281.304 323.103, 289.948 338.275, 289.393 339.173 C 288.962 339.870, 289.137 340.033, 289.845 339.595 C 290.530 339.173, 291 339.517, 291 340.441 C 291 341.298, 291.355 342, 291.789 342 C 292.223 342, 294.107 344.587, 295.975 347.750 C 297.844 350.912, 300.009 354.259, 300.785 355.187 C 301.561 356.115, 301.893 357.363, 301.524 357.962 C 301.154 358.560, 301.310 358.926, 301.870 358.775 C 302.869 358.505, 312 372.315, 312 374.095 C 312 374.593, 312.450 375, 313 375 C 313.550 375, 314 375.520, 314 376.156 C 314 377.223, 317.291 382.461, 327.254 397.250 C 329.385 400.412, 330.856 403, 330.524 403 C 330.193 403, 330.418 403.562, 331.025 404.250 C 332.090 405.456, 337.456 413.792, 344.240 424.780 C 346.033 427.684, 348.943 432.184, 350.708 434.780 C 352.472 437.376, 354.722 441.075, 355.708 443 C 356.693 444.925, 357.764 446.725, 358.086 447 C 358.905 447.699, 366 458.930, 366 459.528 C 366 459.797, 367.342 461.870, 368.982 464.134 C 370.622 466.398, 371.706 468.667, 371.391 469.176 C 371.076 469.686, 372.547 469.356, 374.659 468.443 C 376.772 467.530, 379.400 466.542, 380.500 466.247 C 381.600 465.952, 383.043 465.287, 383.706 464.769 C 384.370 464.252, 385.382 464.118, 385.956 464.473 C 386.530 464.828, 387 464.716, 387 464.225 C 387 463.734, 391.163 461.412, 396.250 459.066 C 401.337 456.720, 408.754 453.186, 412.731 451.214 C 416.708 449.242, 420.249 447.916, 420.600 448.267 C 420.951 448.618, 421.918 448.225, 422.748 447.395 C 423.578 446.564, 424.974 446.160, 425.848 446.495 C 426.723 446.831, 427.122 446.789, 426.735 446.402 C 426.348 446.015, 426.728 445.188, 427.581 444.565 C 428.957 443.558, 429.142 434.354, 429.238 362.466 C 429.296 317.935, 429.641 284.200, 430.004 287.500 C 430.397 291.075, 430.649 285.821, 430.628 274.500 C 430.593 256.336, 430.566 256.072, 430 268.500 C 429.646 276.277, 429.389 266.435, 429.361 244 C 429.335 223.375, 429.623 208.750, 430 211.500 L 430.686 216.500 430.843 211.250 C 430.932 208.269, 430.562 206, 429.987 206 C 429.318 206, 428.991 190.334, 429.022 159.750 C 429.114 69.884, 429.024 61, 428.016 61 C 427.475 61, 424.266 62.340, 420.885 63.978 C 417.503 65.616, 414.277 66.671, 413.714 66.323 C 413.127 65.961, 412.995 66.183, 413.405 66.845 C 413.815 67.509, 413.520 68, 412.713 68 C 411.940 68, 407.687 69.769, 403.263 71.931 C 398.839 74.093, 394.382 76.006, 393.359 76.181 C 392.337 76.356, 391.275 76.764, 391 77.087 C 390.725 77.409, 386.672 79.498, 381.994 81.729 L 373.489 85.785 373.506 215.059 C 373.525 358.698, 373.857 352.010, 367.157 342.899 C 365.401 340.510, 364.391 338.144, 364.740 337.235 C 365.096 336.306, 364.924 335.929, 364.315 336.305 C 363.749 336.655, 360.953 333.037, 358.065 328.219 C 355.191 323.424, 351.413 317.391, 349.669 314.814 C 345.596 308.790, 339.031 298.350, 336.897 294.500 C 335.983 292.850, 333.608 289.093, 331.619 286.152 C 329.630 283.210, 328.300 280.285, 328.662 279.652 C 329.024 279.018, 328.947 278.839, 328.491 279.253 C 327.711 279.960, 322.768 272.822, 323.044 271.387 C 323.114 271.022, 322.659 270.407, 322.033 270.021 C 320.311 268.956, 296.285 230.856, 296.867 230.112 C 297.034 229.898, 296.795 229.448, 296.335 229.112 C 294.678 227.898, 287.667 216.836, 287.667 215.435 C 287.667 214.646, 287.355 214, 286.975 214 C 286.274 214, 279 203.494, 279 202.481 C 279 202.179, 276.750 198.630, 274 194.595 C 271.250 190.560, 269 186.916, 269 186.498 C 269 186.081, 267.425 183.547, 265.500 180.867 C 263.575 178.188, 262 175.787, 262 175.532 C 262 175.119, 257.272 167.618, 247.483 152.500 C 245.703 149.750, 241.617 143.225, 238.404 138 C 235.191 132.775, 231.601 127.150, 230.426 125.500 C 229.250 123.850, 227.211 120.475, 225.894 118 C 224.577 115.525, 222.933 112.901, 222.241 112.169 C 221.548 111.438, 221.283 110.313, 221.651 109.669 C 222.019 109.026, 221.951 108.835, 221.500 109.244 C 221.048 109.653, 220.188 109.120, 219.589 108.058 C 218.462 106.061, 209.366 91.680, 200.312 77.580 C 197.458 73.136, 193.899 67.362, 192.403 64.750 C 189.418 59.539, 189.093 59.420, 184 61.683 M 314 60.730 C 312.678 61.013, 312.526 72.145, 312.721 154.698 C 312.864 215.198, 313.293 248.563, 313.932 248.958 C 315.942 250.200, 323.017 262.164, 322.365 263.218 C 321.931 263.921, 322.162 264.018, 323.015 263.490 C 324.008 262.877, 324.159 263.144, 323.617 264.555 C 323.220 265.591, 323.212 266.121, 323.600 265.733 C 324.572 264.761, 329.085 271.054, 328.312 272.304 C 327.932 272.919, 328.204 272.992, 329.015 272.490 C 330.008 271.877, 330.159 272.144, 329.617 273.555 C 329.220 274.591, 329.211 275.123, 329.597 274.736 C 329.984 274.350, 332.272 277.288, 334.682 281.267 C 337.093 285.245, 339.513 289.175, 340.062 290 C 340.610 290.825, 341.322 292.288, 341.646 293.250 C 341.969 294.212, 342.592 295, 343.030 295 C 343.468 295, 346.186 298.938, 349.070 303.750 C 351.954 308.563, 354.632 312.725, 355.022 313 C 355.910 313.627, 357.472 318.218, 357.173 319.324 C 357.051 319.778, 357.412 319.864, 357.975 319.515 C 358.539 319.167, 359 319.584, 359 320.441 C 359 321.298, 359.441 322, 359.980 322 C 361.040 322, 365.182 329.484, 364.500 330.167 C 364.272 330.394, 364.967 330.647, 366.043 330.728 C 367.967 330.873, 368.001 329.778, 368.039 266.688 C 368.145 91.713, 368.101 86.570, 366.519 85.401 C 365.701 84.797, 365.348 83.985, 365.735 83.598 C 366.122 83.211, 365.591 83.220, 364.555 83.617 C 363.144 84.159, 362.877 84.008, 363.490 83.015 C 363.991 82.206, 363.919 81.932, 363.307 82.310 C 362.756 82.651, 359.649 81.609, 356.403 79.996 C 353.156 78.383, 349.712 77.049, 348.750 77.031 C 347.788 77.014, 347 76.550, 347 76 C 347 75.450, 346.325 75, 345.500 75 C 344.675 75, 344 74.523, 344 73.941 C 344 73.359, 343.615 73.120, 343.144 73.411 C 342.673 73.702, 340.085 72.905, 337.394 71.640 C 325.252 65.933, 316.459 61.565, 316 61.012 C 315.725 60.681, 314.825 60.554, 314 60.730 M 186.801 62.532 C 186.508 62.825, 182.721 64.571, 178.384 66.412 C 170.499 69.760, 134.750 86.001, 134.218 86.477 C 134.064 86.616, 135.414 89.021, 137.218 91.822 C 139.023 94.623, 142.564 100.196, 145.088 104.207 C 147.611 108.218, 155.218 120.275, 161.992 131 C 168.766 141.725, 175.027 151.720, 175.905 153.212 C 176.782 154.703, 181.694 162.578, 186.821 170.712 C 203.226 196.741, 241.817 258.310, 266.917 298.500 C 280.313 319.950, 292.281 339.075, 293.511 341 C 297.397 347.078, 330.025 398.978, 337.833 411.500 C 341.949 418.100, 347.157 426.387, 349.408 429.915 C 362.312 450.143, 367.249 457.999, 369.729 462.249 C 371.253 464.861, 373.011 466.998, 373.636 466.999 C 374.648 467, 400.461 455.464, 419.589 446.462 L 426.679 443.125 427.389 350.527 C 427.780 299.597, 427.781 214.141, 427.391 160.624 L 426.682 63.321 420.591 66.016 C 417.241 67.498, 412.044 69.788, 409.041 71.105 C 406.039 72.422, 397.264 76.445, 389.541 80.044 L 375.500 86.588 375 216.044 C 374.725 287.245, 374.136 346.063, 373.691 346.750 C 372.413 348.724, 369.241 348.210, 367.513 345.750 C 364.859 341.972, 361.880 337.290, 342.429 306.336 C 332.118 289.926, 313.324 260.075, 300.666 240 C 288.008 219.925, 268.455 188.875, 257.214 171 C 245.974 153.125, 235.336 136.250, 233.573 133.500 C 231.810 130.750, 220.976 113.537, 209.498 95.250 C 198.019 76.963, 188.336 62, 187.981 62 C 187.625 62, 187.094 62.240, 186.801 62.532 M 72.247 253.176 L 72.500 443.177 97.236 454.589 C 110.842 460.865, 122.429 466, 122.986 466 C 123.666 466, 124 421.435, 124 330.691 C 124 184.321, 123.750 190.968, 129.198 192.335 C 131.663 192.953, 134.307 196.292, 160.221 231.500 C 165.079 238.100, 170.504 245.382, 172.277 247.683 C 174.049 249.983, 182.700 261.620, 191.500 273.542 C 200.300 285.464, 216.908 307.881, 228.407 323.359 C 239.906 338.837, 251.650 354.650, 254.505 358.500 C 257.360 362.350, 267.547 376.075, 277.143 389 C 286.739 401.925, 299.295 418.951, 305.045 426.836 L 315.500 441.172 336.465 451.537 C 347.996 457.238, 357.616 461.718, 357.841 461.492 C 358.067 461.266, 354.203 454.651, 349.254 446.791 C 344.306 438.931, 332.712 420.350, 323.489 405.500 C 305.368 376.321, 264.796 311.626, 259.523 303.500 C 257.738 300.750, 251.829 291.300, 246.391 282.500 C 240.953 273.700, 234.703 263.695, 232.502 260.267 C 230.301 256.839, 226.885 251.439, 224.912 248.267 C 213.417 229.791, 195.266 200.791, 192.511 196.500 C 188.935 190.931, 186.666 187.324, 162 148 C 152.512 132.875, 142.894 117.478, 140.625 113.784 C 138.356 110.090, 133.350 102.228, 129.500 96.314 L 122.500 85.560 105 77.673 C 95.375 73.335, 84.011 68.298, 79.747 66.480 L 71.995 63.174 72.247 253.176 M 314 154.037 L 314 245.241 322.750 259.130 C 327.563 266.769, 333.863 276.727, 336.752 281.260 C 339.640 285.792, 343.376 291.750, 345.053 294.500 C 346.730 297.250, 351.239 304.450, 355.072 310.500 C 358.905 316.550, 362.791 322.962, 363.706 324.750 C 364.621 326.538, 365.644 328, 365.978 328 C 367.004 328, 367.187 266.756, 366.436 174.433 L 365.720 86.366 340.773 74.933 C 327.052 68.645, 315.415 63.350, 314.913 63.167 C 314.367 62.967, 314 99.446, 314 154.037 M 130.971 209.250 C 130.645 246.063, 131.179 467.481, 131.596 468.155 C 131.951 468.730, 132.631 468.739, 133.339 468.179 C 134.944 466.909, 142.280 464.526, 143.500 464.878 C 144.050 465.037, 144.171 464.838, 143.770 464.437 C 143.032 463.698, 152.441 458.791, 154.750 458.710 C 155.438 458.686, 156 458.292, 156 457.833 C 156 457.375, 156.449 457, 156.997 457 C 157.889 457, 161.785 455.297, 175.723 448.813 C 178.045 447.732, 180.477 447.177, 181.127 447.579 C 181.923 448.071, 182.042 447.877, 181.490 446.985 C 180.891 446.015, 181.132 445.836, 182.388 446.319 C 183.544 446.762, 183.870 446.599, 183.388 445.819 C 182.926 445.071, 183.203 444.864, 184.169 445.235 C 184.993 445.551, 185.703 445.290, 185.747 444.655 C 185.792 444.020, 185.874 406.472, 185.931 361.216 C 186.008 299.764, 185.736 278.371, 184.855 276.716 C 184.206 275.497, 182.401 272.925, 180.842 271 C 176.048 265.077, 162.685 247.031, 159.147 241.702 C 157.303 238.924, 155.192 236.049, 154.457 235.314 C 153.721 234.578, 150.304 230.044, 146.864 225.238 C 143.423 220.432, 139.121 214.732, 137.304 212.570 C 135.487 210.409, 134 208.046, 134 207.320 C 134 206.594, 133.325 206, 132.500 206 C 131.480 206, 130.991 207.041, 130.971 209.250 M 133 337.800 C 133 408.310, 133.252 466, 133.560 466 C 133.868 466, 141.630 462.574, 150.810 458.388 C 159.989 454.201, 171.325 449.040, 176 446.918 L 184.500 443.061 184.756 361.202 L 185.012 279.343 181.636 274.922 C 179.780 272.490, 172.948 263.300, 166.455 254.500 C 146.331 227.228, 134.684 211.540, 133.824 210.550 C 133.371 210.028, 133 267.290, 133 337.800 M 430.232 234 C 430.232 235.925, 430.438 236.713, 430.689 235.750 C 430.941 234.787, 430.941 233.213, 430.689 232.250 C 430.438 231.287, 430.232 232.075, 430.232 234 M 187.195 348.500 C 187.215 350.150, 187.439 350.704, 187.693 349.731 C 187.947 348.758, 187.930 347.408, 187.656 346.731 C 187.382 346.054, 187.175 346.850, 187.195 348.500" stroke="none" fill-rule="evenodd"/><path d="M 125.450 25.819 C 124.927 26.269, 120.225 28.588, 115 30.971 C 109.775 33.355, 99.200 38.322, 91.500 42.009 C 83.800 45.696, 74.736 49.942, 71.358 51.444 L 65.216 54.176 65.029 212.838 C 64.926 300.102, 64.740 375.438, 64.615 380.250 C 64.491 385.062, 64.778 389, 65.254 389 C 65.729 389, 65.863 389.413, 65.551 389.917 C 64.518 391.589, 64.235 416, 65.249 416 C 65.785 416, 65.883 416.778, 65.469 417.750 C 64.097 420.974, 63.957 430.353, 65.268 431.202 C 66.236 431.829, 66.223 432.179, 65.208 432.835 C 64.234 433.464, 64.146 434.695, 64.850 437.827 C 65.384 440.204, 65.402 441.748, 64.892 441.433 C 64.401 441.130, 64 442.034, 64 443.441 C 64 444.848, 64.450 446, 65 446 C 65.550 446, 66 446.640, 66 447.422 C 66 448.205, 67.688 449.392, 69.750 450.060 C 71.813 450.728, 76.033 452.542, 79.130 454.091 C 82.226 455.640, 85.038 456.628, 85.380 456.287 C 85.721 455.946, 86 456.192, 86 456.833 C 86 457.475, 86.615 458, 87.366 458 C 88.117 458, 93.007 460.025, 98.232 462.500 C 103.457 464.975, 108.430 467, 109.285 467 C 111.057 467, 117.331 470.119, 117.833 471.250 C 118.017 471.662, 118.820 472, 119.619 472 C 120.417 472, 122.098 472.673, 123.354 473.496 C 127.115 475.960, 130.068 475.523, 139.150 471.158 C 143.907 468.871, 148.131 467, 148.537 467 C 148.942 467, 152.925 465.272, 157.387 463.159 C 161.849 461.047, 170.900 456.935, 177.500 454.022 C 184.100 451.108, 190.087 448.262, 190.804 447.696 C 191.856 446.865, 192.086 432.382, 191.996 372.583 C 191.864 283.632, 191.811 289, 192.811 289 C 193.962 289, 197.078 292.242, 200 296.478 C 202.431 300.003, 209.341 309.463, 212.433 313.500 C 213.276 314.600, 216.277 318.538, 219.102 322.250 C 221.928 325.963, 224.662 329, 225.179 329 C 225.695 329, 225.882 329.382, 225.594 329.849 C 225.305 330.315, 225.954 331.646, 227.035 332.807 C 228.116 333.967, 229 335.330, 229 335.836 C 229 336.341, 229.659 337.302, 230.464 337.971 C 231.270 338.639, 233.487 341.507, 235.391 344.343 C 237.294 347.179, 240.235 350.990, 241.926 352.812 C 243.617 354.633, 245.013 356.433, 245.028 356.812 C 245.081 358.132, 250.711 364.957, 251.353 364.481 C 251.709 364.216, 251.793 364.282, 251.539 364.627 C 251.061 365.279, 256.707 374, 257.607 374 C 257.888 374, 257.797 373.480, 257.405 372.845 C 256.949 372.108, 257.132 371.963, 257.912 372.446 C 258.584 372.861, 258.892 373.441, 258.598 373.736 C 258.072 374.262, 264.471 383.917, 267.801 387.623 C 268.735 388.662, 271.520 392.435, 273.988 396.006 C 276.457 399.578, 280.880 405.650, 283.817 409.500 C 289.456 416.890, 294.149 423.174, 302.305 434.250 C 305.038 437.962, 307.663 441, 308.137 441 C 308.612 441, 309 441.675, 309 442.500 C 309 443.325, 309.343 444, 309.763 444 C 310.182 444, 310.970 445.012, 311.513 446.250 C 312.149 447.699, 314.457 449.214, 318 450.508 C 323.041 452.348, 342.182 461.344, 362.758 471.543 C 370.554 475.408, 371.220 475.567, 374.658 474.385 C 376.661 473.696, 378.676 472.540, 379.135 471.816 C 379.594 471.092, 379.976 470.803, 379.985 471.173 C 380.004 472.025, 395.350 465.445, 404.237 460.774 C 407.942 458.827, 410.730 457.628, 410.432 458.110 C 410.134 458.592, 414.045 456.965, 419.122 454.494 C 424.200 452.022, 429.123 450, 430.062 450 C 431.002 450, 432.563 448.790, 433.532 447.310 C 435.162 444.823, 435.246 442.058, 434.644 410.560 C 434.286 391.827, 433.951 304.182, 433.900 215.792 C 433.830 95.688, 433.515 54.858, 432.653 54.189 C 431.657 53.414, 425.884 50.671, 397.500 37.485 C 394.750 36.208, 387.550 32.838, 381.500 29.996 L 370.500 24.830 363.500 28.341 C 359.650 30.272, 354.475 32.630, 352 33.581 C 349.525 34.532, 346.825 35.860, 346 36.532 C 345.175 37.204, 342.836 38.341, 340.803 39.059 C 338.770 39.776, 337.377 40.801, 337.708 41.336 C 338.039 41.873, 337.793 41.990, 337.160 41.599 C 336.160 40.981, 326.394 45.180, 312.293 52.290 L 308.086 54.411 307.793 71.956 C 307.632 81.605, 307.886 89.781, 308.357 90.125 C 308.828 90.469, 308.677 91.082, 308.021 91.487 C 307.141 92.031, 306.884 98.551, 307.042 116.362 C 307.160 129.638, 307.198 162.094, 307.128 188.487 L 307 236.473 303.274 230.987 C 297.762 222.870, 290.410 211.118, 287.642 206 C 286.304 203.525, 284.084 200.290, 282.709 198.812 C 281.335 197.333, 280.463 195.871, 280.772 195.562 C 281.081 195.253, 280.733 195, 280 195 C 279.267 195, 278.946 194.721, 279.287 194.380 C 279.628 194.038, 278.277 191.226, 276.284 188.130 C 274.292 185.033, 272.156 181.600, 271.539 180.500 C 268.686 175.415, 264.235 169.098, 263.807 169.526 C 263.547 169.787, 263.333 169.403, 263.333 168.674 C 263.333 167.114, 250.663 146.531, 247.670 143.228 C 246.538 141.979, 245.508 140.253, 245.381 139.392 C 245.255 138.530, 244.046 136.178, 242.695 134.163 C 238.383 127.735, 229.340 113.536, 228.898 112.500 C 227.691 109.670, 221.579 101, 220.792 101 C 220.291 101, 220.130 100.598, 220.434 100.106 C 220.738 99.615, 219.067 96.352, 216.720 92.856 C 214.374 89.360, 211.859 85.324, 211.131 83.886 C 210.403 82.448, 208.716 80.095, 207.382 78.656 C 206.048 77.218, 205.033 75.919, 205.126 75.770 C 205.459 75.240, 201.011 67.125, 200.068 66.542 C 199.539 66.215, 197.650 63.298, 195.869 60.059 C 193.108 55.036, 191.886 53.846, 187.566 51.976 C 184.780 50.769, 179.389 48.369, 175.587 46.641 C 171.785 44.913, 168.297 43.613, 167.837 43.750 C 167.377 43.888, 167 43.550, 167 43 C 167 42.450, 166.488 42, 165.861 42 C 165.235 42, 160.969 40.200, 156.381 38 C 151.794 35.800, 147.828 34, 147.569 34 C 147.310 34, 142.851 31.975, 137.660 29.500 C 127.681 24.742, 126.954 24.523, 125.450 25.819 M 121 34.382 C 117.975 35.646, 113.643 37.633, 111.374 38.797 C 109.104 39.962, 106.967 40.634, 106.624 40.290 C 106.281 39.947, 106 40.143, 106 40.725 C 106 41.307, 104.980 42.039, 103.734 42.352 C 99.513 43.411, 76 55.006, 76 56.028 C 76 56.586, 77.237 57.557, 78.750 58.185 C 80.263 58.813, 85.257 61.054, 89.848 63.164 C 94.440 65.274, 98.553 67, 98.988 67 C 99.424 67, 102.867 68.520, 106.640 70.378 C 110.413 72.236, 117.061 75.234, 121.414 77.040 L 129.327 80.323 133.414 78.301 C 144.427 72.852, 151.572 69.630, 152.250 69.806 C 152.662 69.913, 153 69.550, 153 69 C 153 68.450, 153.591 68, 154.313 68 C 156.685 68, 179 57.023, 179 55.856 C 179 55.021, 158.342 44.862, 153.737 43.432 C 152.507 43.050, 150.272 41.873, 148.771 40.815 C 147.269 39.758, 145.123 38.716, 144 38.500 C 142.877 38.284, 140.618 37.152, 138.979 35.985 C 137.341 34.819, 136 34.125, 136 34.445 C 136 34.765, 134.370 34.346, 132.378 33.513 C 127.805 31.603, 127.619 31.617, 121 34.382 M 365 33.769 C 363.075 34.672, 357.675 37.159, 353 39.296 C 348.325 41.433, 340.744 44.941, 336.154 47.091 C 331.564 49.241, 327.332 50.705, 326.750 50.345 C 326.128 49.961, 325.985 50.167, 326.405 50.845 C 326.831 51.535, 326.471 52, 325.509 52 C 323.527 52, 317.996 54.784, 318.010 55.776 C 318.019 56.514, 333.657 64.167, 337.750 65.437 C 338.988 65.821, 340 66.581, 340 67.126 C 340 67.672, 340.398 67.872, 340.886 67.571 C 341.732 67.047, 358.963 74.514, 360 75.854 C 360.275 76.209, 360.950 76.503, 361.500 76.507 C 362.050 76.510, 364.595 77.343, 367.156 78.357 L 371.812 80.200 376.656 77.767 C 379.320 76.429, 381.725 75.288, 382 75.231 C 383.861 74.851, 387.246 73.409, 392 70.973 C 395.025 69.423, 400.200 67.146, 403.500 65.915 C 406.800 64.683, 411.387 62.623, 413.692 61.337 C 415.998 60.052, 418.531 59, 419.320 59 C 420.109 59, 421.304 58.339, 421.975 57.530 C 422.988 56.309, 422.586 55.770, 419.597 54.345 C 417.619 53.402, 416 52.236, 416 51.756 C 416 51.275, 415.569 51.149, 415.041 51.474 C 413.986 52.127, 399.702 45.286, 399.165 43.871 C 398.980 43.385, 398.455 43.219, 397.998 43.501 C 396.799 44.242, 378.972 35.376, 379.804 34.452 C 380.187 34.027, 379.985 33.974, 379.356 34.333 C 378.727 34.693, 376.604 34.315, 374.638 33.493 C 370.271 31.668, 369.428 31.693, 365 33.769 M 71.317 60.804 C 70.010 61.612, 69.662 123.728, 69.868 319.266 L 70 444.032 73.500 445.701 C 75.425 446.619, 77 447.764, 77 448.244 C 77 448.725, 77.398 448.872, 77.885 448.571 C 79.309 447.691, 85.068 450.081, 84.344 451.252 C 83.985 451.833, 84.149 452.026, 84.709 451.680 C 85.644 451.102, 93.841 454.449, 95 455.882 C 95.275 456.222, 96.400 456.656, 97.500 456.846 C 98.600 457.037, 103.325 459.036, 108 461.288 C 112.675 463.540, 117.086 465.486, 117.802 465.611 C 118.518 465.736, 120.130 466.511, 121.384 467.332 C 125.434 469.986, 125.898 468.441, 125.599 453.269 C 125.402 443.232, 125.639 439.271, 126.410 439.732 C 127.083 440.135, 127.053 439.831, 126.331 438.937 C 125.454 437.851, 125.239 416.264, 125.471 352.495 C 125.642 305.748, 125.782 265.250, 125.784 262.500 C 125.812 219.823, 125.860 196.265, 125.923 195.250 C 126.044 193.287, 130.811 193.778, 131.930 195.869 C 132.480 196.896, 132.608 198.093, 132.215 198.529 C 131.822 198.964, 132.004 199.033, 132.620 198.682 C 133.263 198.315, 135.468 200.485, 137.793 203.771 C 140.023 206.922, 142.574 210.400, 143.463 211.500 C 150.257 219.909, 155.910 228.337, 155.356 229.234 C 154.972 229.854, 155.158 230.020, 155.795 229.627 C 156.932 228.924, 159.296 232.239, 158.465 233.369 C 158.209 233.716, 158.278 233.797, 158.617 233.549 C 159.153 233.158, 165.435 240.835, 170 247.459 C 170.825 248.656, 172.963 251.470, 174.750 253.712 C 176.537 255.954, 178 258.537, 178 259.453 C 178 260.369, 178.412 260.864, 178.915 260.553 C 179.968 259.902, 184.652 266.997, 184.160 268.500 C 183.981 269.050, 184.138 269.195, 184.511 268.822 C 185.205 268.128, 195 280.407, 195 281.970 C 195 282.445, 195.400 282.983, 195.890 283.167 C 196.379 283.350, 200.439 288.450, 204.912 294.500 C 209.385 300.550, 214.279 307.075, 215.786 309 C 217.293 310.925, 219.869 314.525, 221.510 317 C 223.152 319.475, 224.835 321.753, 225.252 322.062 C 227.317 323.594, 230.857 329.433, 230.306 330.399 C 229.962 331.005, 230.052 331.162, 230.507 330.750 C 230.962 330.337, 233.762 333.262, 236.729 337.250 C 239.696 341.237, 243.438 346.244, 245.044 348.375 C 246.650 350.506, 247.720 352.644, 247.423 353.125 C 247.125 353.606, 247.471 354.011, 248.191 354.024 C 249.576 354.049, 260.657 368.969, 260.243 370.250 C 260.109 370.663, 260.389 371, 260.864 371 C 261.339 371, 263.027 372.913, 264.614 375.250 C 266.201 377.587, 268.287 380.088, 269.250 380.807 C 270.212 381.525, 271 382.626, 271 383.252 C 271 383.878, 272.058 385.540, 273.350 386.945 C 274.643 388.350, 279.382 394.636, 283.882 400.913 C 288.382 407.190, 293.178 413.715, 294.539 415.413 C 301.248 423.780, 302.918 426.323, 302.331 427.274 C 301.971 427.856, 302.174 428.010, 302.795 427.627 C 303.406 427.249, 304.443 427.960, 305.115 429.214 C 307.397 433.479, 316.333 443.971, 318.183 444.558 C 319.198 444.880, 319.728 445.631, 319.360 446.227 C 318.962 446.871, 319.157 447.021, 319.843 446.597 C 320.477 446.205, 322.234 446.539, 323.748 447.339 C 325.262 448.140, 330.194 450.584, 334.709 452.771 C 339.224 454.959, 342.613 457.054, 342.239 457.427 C 341.866 457.800, 342.409 457.780, 343.445 457.383 C 344.746 456.883, 345.107 457.018, 344.612 457.819 C 344.144 458.575, 344.434 458.771, 345.448 458.382 C 346.302 458.054, 347 458.284, 347 458.893 C 347 459.502, 347.337 459.911, 347.750 459.802 C 349.115 459.441, 353 461.118, 353 462.067 C 353 462.580, 353.337 462.893, 353.750 462.762 C 354.163 462.631, 355.977 463.142, 357.782 463.897 C 359.587 464.652, 361.320 465.013, 361.633 464.701 C 361.946 464.388, 359.224 459.490, 355.584 453.816 C 351.945 448.142, 348.187 441.925, 347.234 440 C 346.280 438.075, 344.823 435.746, 343.996 434.825 C 341.698 432.267, 333.689 418.660, 333.677 417.294 C 333.671 416.631, 333.309 416.309, 332.872 416.579 C 332.434 416.850, 331.108 415.142, 329.924 412.785 C 328.740 410.428, 326.790 407.150, 325.589 405.500 C 322.421 401.144, 313.883 387.162, 313.985 386.496 C 314.032 386.184, 313.376 385.233, 312.527 384.384 C 311.677 383.534, 311.283 382.313, 311.651 381.669 C 312.019 381.026, 311.975 380.811, 311.553 381.191 C 310.879 381.798, 304 372.719, 304 371.223 C 304 370.906, 302.501 368.363, 300.668 365.573 C 298.836 362.783, 294.674 356.347, 291.418 351.270 C 285.644 342.265, 284.180 339.939, 273.996 323.597 C 271.287 319.251, 269.307 315.313, 269.594 314.847 C 269.882 314.381, 269.702 314, 269.193 314 C 268.034 314, 260 302.138, 260 300.427 C 260 299.734, 259.626 299.017, 259.170 298.833 C 258.346 298.503, 250.800 286.806, 240.246 269.500 C 237.227 264.550, 233.309 258.250, 231.540 255.500 C 228.460 250.711, 220.829 238.596, 218.292 234.466 C 217.628 233.385, 214.530 228.450, 211.407 223.500 C 208.285 218.550, 205.716 213.957, 205.699 213.294 C 205.681 212.631, 205.343 212.288, 204.947 212.533 C 204.551 212.777, 203.944 212.195, 203.598 211.239 C 203.251 210.282, 202.399 208.600, 201.703 207.500 C 199.694 204.323, 192.995 193.957, 189.425 188.500 C 187.626 185.750, 186.007 182.827, 185.827 182.004 C 185.647 181.181, 184.825 179.957, 184 179.285 C 183.175 178.613, 182.816 178.049, 183.202 178.032 C 183.588 178.014, 182.898 176.914, 181.667 175.586 C 180.437 174.258, 178.772 171.896, 177.968 170.336 C 177.164 168.776, 174.705 164.701, 172.503 161.281 C 170.301 157.860, 166.363 151.743, 163.750 147.687 C 161.137 143.632, 159 140.038, 159 139.701 C 159 139.364, 157.210 136.534, 155.023 133.412 C 152.836 130.289, 151.287 127.344, 151.582 126.867 C 151.877 126.390, 151.737 126, 151.271 126 C 150.019 126, 142.859 115.038, 143.467 114.053 C 143.754 113.589, 143.288 112.941, 142.431 112.612 C 141.574 112.283, 141.153 111.561, 141.496 111.007 C 141.838 110.453, 141.688 110, 141.163 110 C 140.638 110, 138.877 107.862, 137.250 105.250 C 135.623 102.638, 132.089 96.957, 129.396 92.626 C 124.186 84.246, 123.741 83.933, 107 76.850 C 97.998 73.041, 93 70.511, 93 69.764 C 93 69.344, 92.285 69, 91.412 69 C 89.438 69, 73.707 62.144, 72.979 60.967 C 72.687 60.493, 71.939 60.420, 71.317 60.804 M 184 61.683 C 182.075 62.538, 179.825 63.638, 179 64.125 C 178.175 64.613, 176.825 65.291, 176 65.631 C 173.807 66.534, 133.156 85.105, 132.160 85.658 C 131.630 85.952, 140.246 100.258, 142.302 102.500 C 143.312 103.600, 144.388 105.737, 144.694 107.250 C 145 108.763, 145.568 110, 145.957 110 C 146.563 110, 148.156 112.353, 153.502 121.140 C 154.051 122.042, 156.216 125.417, 158.313 128.640 C 162.672 135.339, 167.200 142.513, 173.273 152.342 C 177.763 159.611, 184.165 169.652, 190.587 179.500 C 192.739 182.800, 194.847 186.353, 195.272 187.395 C 195.696 188.438, 197.537 191.363, 199.363 193.895 C 202.481 198.220, 204.021 201.199, 203.887 202.649 C 203.855 202.994, 204.227 203.552, 204.713 203.888 C 206.617 205.207, 209.901 210.770, 209.220 211.523 C 208.824 211.962, 208.990 212.042, 209.589 211.701 C 210.197 211.355, 211.697 212.939, 212.987 215.291 C 214.258 217.606, 215.870 220.175, 216.570 221 C 217.270 221.825, 217.990 223.137, 218.171 223.917 C 218.352 224.696, 219.093 226.046, 219.819 226.917 C 220.544 227.787, 222.839 231.200, 224.918 234.500 C 226.997 237.800, 232.335 246.200, 236.780 253.166 C 246.414 268.264, 248.151 271.490, 247.210 272.534 C 246.820 272.966, 247.030 273.017, 247.678 272.646 C 248.351 272.260, 249.106 272.759, 249.439 273.809 C 249.760 274.820, 250.805 276.527, 251.761 277.601 C 252.718 278.675, 254.400 281.342, 255.500 283.527 C 256.600 285.712, 258.227 288.307, 259.115 289.293 C 260.003 290.279, 261.981 293.429, 263.510 296.293 C 265.040 299.157, 266.917 302.228, 267.681 303.118 C 268.942 304.585, 273.334 311.558, 277.056 318 C 277.850 319.375, 278.742 320.725, 279.039 321 C 281.304 323.103, 289.948 338.275, 289.393 339.173 C 288.962 339.870, 289.137 340.033, 289.845 339.595 C 290.530 339.173, 291 339.517, 291 340.441 C 291 341.298, 291.355 342, 291.789 342 C 292.223 342, 294.107 344.587, 295.975 347.750 C 297.844 350.912, 300.009 354.259, 300.785 355.187 C 301.561 356.115, 301.893 357.363, 301.524 357.962 C 301.154 358.560, 301.310 358.926, 301.870 358.775 C 302.869 358.505, 312 372.315, 312 374.095 C 312 374.593, 312.450 375, 313 375 C 313.550 375, 314 375.520, 314 376.156 C 314 377.223, 317.291 382.461, 327.254 397.250 C 329.385 400.412, 330.856 403, 330.524 403 C 330.193 403, 330.418 403.562, 331.025 404.250 C 332.090 405.456, 337.456 413.792, 344.240 424.780 C 346.033 427.684, 348.943 432.184, 350.708 434.780 C 352.472 437.376, 354.722 441.075, 355.708 443 C 356.693 444.925, 357.764 446.725, 358.086 447 C 358.905 447.699, 366 458.930, 366 459.528 C 366 459.797, 367.342 461.870, 368.982 464.134 C 370.622 466.398, 371.706 468.667, 371.391 469.176 C 371.076 469.686, 372.547 469.356, 374.659 468.443 C 376.772 467.530, 379.400 466.542, 380.500 466.247 C 381.600 465.952, 383.043 465.287, 383.706 464.769 C 384.370 464.252, 385.382 464.118, 385.956 464.473 C 386.530 464.828, 387 464.716, 387 464.225 C 387 463.734, 391.163 461.412, 396.250 459.066 C 401.337 456.720, 408.754 453.186, 412.731 451.214 C 416.708 449.242, 420.249 447.916, 420.600 448.267 C 420.951 448.618, 421.918 448.225, 422.748 447.395 C 423.578 446.564, 424.974 446.160, 425.848 446.495 C 426.723 446.831, 427.122 446.789, 426.735 446.402 C 426.348 446.015, 426.728 445.188, 427.581 444.565 C 428.957 443.558, 429.142 434.354, 429.238 362.466 C 429.296 317.935, 429.641 284.200, 430.004 287.500 C 430.397 291.075, 430.649 285.821, 430.628 274.500 C 430.593 256.336, 430.566 256.072, 430 268.500 C 429.646 276.277, 429.389 266.435, 429.361 244 C 429.335 223.375, 429.623 208.750, 430 211.500 L 430.686 216.500 430.843 211.250 C 430.932 208.269, 430.562 206, 429.987 206 C 429.318 206, 428.991 190.334, 429.022 159.750 C 429.114 69.884, 429.024 61, 428.016 61 C 427.475 61, 424.266 62.340, 420.885 63.978 C 417.503 65.616, 414.277 66.671, 413.714 66.323 C 413.127 65.961, 412.995 66.183, 413.405 66.845 C 413.815 67.509, 413.520 68, 412.713 68 C 411.940 68, 407.687 69.769, 403.263 71.931 C 398.839 74.093, 394.382 76.006, 393.359 76.181 C 392.337 76.356, 391.275 76.764, 391 77.087 C 390.725 77.409, 386.672 79.498, 381.994 81.729 L 373.489 85.785 373.506 215.059 C 373.525 358.698, 373.857 352.010, 367.157 342.899 C 365.401 340.510, 364.391 338.144, 364.740 337.235 C 365.096 336.306, 364.924 335.929, 364.315 336.305 C 363.749 336.655, 360.953 333.037, 358.065 328.219 C 355.191 323.424, 351.413 317.391, 349.669 314.814 C 345.596 308.790, 339.031 298.350, 336.897 294.500 C 335.983 292.850, 333.608 289.093, 331.619 286.152 C 329.630 283.210, 328.300 280.285, 328.662 279.652 C 329.024 279.018, 328.947 278.839, 328.491 279.253 C 327.711 279.960, 322.768 272.822, 323.044 271.387 C 323.114 271.022, 322.659 270.407, 322.033 270.021 C 320.311 268.956, 296.285 230.856, 296.867 230.112 C 297.034 229.898, 296.795 229.448, 296.335 229.112 C 294.678 227.898, 287.667 216.836, 287.667 215.435 C 287.667 214.646, 287.355 214, 286.975 214 C 286.274 214, 279 203.494, 279 202.481 C 279 202.179, 276.750 198.630, 274 194.595 C 271.250 190.560, 269 186.916, 269 186.498 C 269 186.081, 267.425 183.547, 265.500 180.867 C 263.575 178.188, 262 175.787, 262 175.532 C 262 175.119, 257.272 167.618, 247.483 152.500 C 245.703 149.750, 241.617 143.225, 238.404 138 C 235.191 132.775, 231.601 127.150, 230.426 125.500 C 229.250 123.850, 227.211 120.475, 225.894 118 C 224.577 115.525, 223.213 113.275, 222.863 113 C 222.513 112.725, 221.388 111.077, 220.363 109.339 C 218.368 105.954, 208.783 90.772, 200.312 77.580 C 197.458 73.136, 193.899 67.362, 192.403 64.750 C 189.418 59.539, 189.093 59.420, 184 61.683 M 314 60.730 C 312.678 61.012, 312.528 72.013, 312.740 153.604 C 312.871 204.508, 313.278 246.641, 313.644 247.233 C 314.061 247.908, 313.786 248.038, 312.905 247.580 C 312.132 247.180, 312.296 247.503, 313.269 248.300 C 316.161 250.668, 323.094 262.039, 322.365 263.218 C 321.931 263.921, 322.162 264.018, 323.015 263.490 C 324.008 262.877, 324.159 263.144, 323.617 264.555 C 323.220 265.591, 323.212 266.121, 323.600 265.733 C 324.572 264.761, 329.085 271.054, 328.312 272.304 C 327.932 272.919, 328.204 272.992, 329.015 272.490 C 330.008 271.877, 330.159 272.144, 329.617 273.555 C 329.220 274.591, 329.211 275.123, 329.597 274.736 C 329.984 274.350, 332.272 277.288, 334.682 281.267 C 337.093 285.245, 339.513 289.175, 340.062 290 C 340.610 290.825, 341.322 292.288, 341.646 293.250 C 341.969 294.212, 342.592 295, 343.030 295 C 343.468 295, 346.186 298.938, 349.070 303.750 C 351.954 308.563, 354.632 312.725, 355.022 313 C 355.910 313.627, 357.472 318.218, 357.173 319.324 C 357.051 319.778, 357.412 319.864, 357.975 319.515 C 358.539 319.167, 359 319.584, 359 320.441 C 359 321.298, 359.441 322, 359.980 322 C 361.040 322, 365.182 329.484, 364.500 330.167 C 364.272 330.394, 364.967 330.647, 366.043 330.728 C 367.967 330.873, 368.001 329.778, 368.039 266.688 C 368.145 91.713, 368.101 86.570, 366.519 85.401 C 365.701 84.797, 365.348 83.985, 365.735 83.598 C 366.122 83.211, 365.591 83.220, 364.555 83.617 C 363.144 84.159, 362.877 84.008, 363.490 83.015 C 363.991 82.206, 363.919 81.932, 363.307 82.310 C 362.756 82.651, 359.649 81.609, 356.403 79.996 C 353.156 78.383, 349.712 77.049, 348.750 77.031 C 347.788 77.014, 347 76.550, 347 76 C 347 75.450, 346.325 75, 345.500 75 C 344.675 75, 344 74.523, 344 73.941 C 344 73.359, 343.615 73.120, 343.144 73.411 C 342.673 73.702, 340.085 72.905, 337.394 71.640 C 325.252 65.933, 316.459 61.565, 316 61.012 C 315.725 60.681, 314.825 60.554, 314 60.730 M 130.971 209.250 C 130.645 246.063, 131.179 467.481, 131.596 468.155 C 131.951 468.730, 132.631 468.739, 133.339 468.179 C 134.944 466.909, 142.280 464.526, 143.500 464.878 C 144.050 465.037, 144.171 464.838, 143.770 464.437 C 143.032 463.698, 152.441 458.791, 154.750 458.710 C 155.438 458.686, 156 458.292, 156 457.833 C 156 457.375, 156.449 457, 156.997 457 C 157.889 457, 161.785 455.297, 175.723 448.813 C 178.045 447.732, 180.477 447.177, 181.127 447.579 C 181.923 448.071, 182.042 447.877, 181.490 446.985 C 180.891 446.015, 181.132 445.836, 182.388 446.319 C 183.544 446.762, 183.870 446.599, 183.388 445.819 C 182.926 445.071, 183.203 444.864, 184.169 445.235 C 184.993 445.551, 185.703 445.290, 185.747 444.655 C 185.792 444.020, 185.874 406.472, 185.931 361.216 C 186.008 299.764, 185.736 278.371, 184.855 276.716 C 184.206 275.497, 182.401 272.925, 180.842 271 C 176.048 265.077, 162.685 247.031, 159.147 241.702 C 157.303 238.924, 155.192 236.049, 154.457 235.314 C 153.721 234.578, 150.304 230.044, 146.864 225.238 C 143.423 220.432, 139.121 214.732, 137.304 212.570 C 135.487 210.409, 134 208.046, 134 207.320 C 134 206.594, 133.325 206, 132.500 206 C 131.480 206, 130.991 207.041, 130.971 209.250 M 430.232 234 C 430.232 235.925, 430.438 236.713, 430.689 235.750 C 430.941 234.787, 430.941 233.213, 430.689 232.250 C 430.438 231.287, 430.232 232.075, 430.232 234 M 187.195 348.500 C 187.215 350.150, 187.439 350.704, 187.693 349.731 C 187.947 348.758, 187.930 347.408, 187.656 346.731 C 187.382 346.054, 187.175 346.850, 187.195 348.500"/></svg>